<svg id="eur9ABLxXcY1" xmlns="http://www.w3.org/2000/svg" xmlns:xlink="http://www.w3.org/1999/xlink" viewBox="0 0 1440 1080" shape-rendering="geometricPrecision" text-rendering="geometricPrecision"><path id="eur9ABLxXcY2" d="" fill="none" stroke="rgb(63,87,135)" stroke-width="2.880000" stroke-miterlimit="1"/><path id="eur9ABLxXcY3" d="M494.678112,30.901288Q1020.000001,59.227468,765.064378,267.811159" transform="matrix(-1.42875849012838 0 0 3.54383118262644 3390.88719365395082 1257.59712044645380)" fill="none" stroke="rgb(63,87,135)" stroke-width="2.880000" stroke-miterlimit="1"/><path id="eur9ABLxXcY4" d="" fill="none" stroke="rgb(63,87,135)" stroke-width="2.880000" stroke-miterlimit="1"/><path id="eur9ABLxXcY5" d="M765.332545,62.792924Q463.741474,386.273669,779.925661,483.561112L638.858870,734.076276L784.790033,921.354602" transform="matrix(1 0 0 1 1225.82177400000000 420.76818800000001)" fill="none" stroke="rgb(63,87,135)" stroke-width="2.880000" stroke-miterlimit="1"/><rect id="eur9ABLxXcY6" width="666.418980" height="817.214516" rx="0" ry="0" transform="matrix(1 0 0 1 2224.01448399999981 1233.99923399999989)" paint-order="markers fill stroke" fill="rgb(210,219,237)" stroke="none" stroke-width="0" stroke-miterlimit="1"/><line id="eur9ABLxXcY7" x1="-321.048560" y1="-57.156372" x2="321.048560" y2="57.156373" transform="matrix(1 0 0 1 570.75766050000004 188.05050549999999)" fill="none" stroke="rgb(151,160,180)" stroke-width="3" stroke-miterlimit="1"/><line id="eur9ABLxXcY8" x1="333.209490" y1="-87.558698" x2="-333.209490" y2="87.558698" transform="matrix(1 0 0 1 558.59672999999998 332.76557600000001)" fill="none" stroke="rgba(140,147,162,0.43)" stroke-width="3" stroke-miterlimit="1"/><line id="eur9ABLxXcY9" x1="-333.209490" y1="-94.855257" x2="333.209490" y2="94.855256" transform="matrix(1 0 0 1 558.59672999999998 515.17953050000006)" fill="none" stroke="rgba(101,103,107,0.38)" stroke-width="3" stroke-miterlimit="1"/><line id="eur9ABLxXcY10" x1="333.209490" y1="-72.965581" x2="-333.209490" y2="72.965581" transform="matrix(1 0 0 1 558.59672999999998 683.00036850000004)" fill="none" stroke="rgba(62,63,66,0.37)" stroke-width="3" stroke-miterlimit="1"/><line id="eur9ABLxXcY11" x1="-333.209490" y1="-46.211535" x2="333.209490" y2="46.211535" transform="matrix(1 0 0 1 558.59672999999998 802.17748549999999)" fill="none" stroke="rgba(62,63,66,0.35)" stroke-width="3" stroke-miterlimit="1"/><line id="eur9ABLxXcY12" x1="267.540466" y1="-27.970139" x2="-267.540467" y2="27.970140" transform="matrix(1 0 0 1.16000003026085 624.26575350000007 876.35916049999992)" fill="none" stroke="rgba(78,108,169,0.36)" stroke-width="3" stroke-miterlimit="1"/></svg>