<svg id="ebWNd5ZCl4U1" xmlns="http://www.w3.org/2000/svg" xmlns:xlink="http://www.w3.org/1999/xlink" viewBox="0 0 960 2100" shape-rendering="geometricPrecision" text-rendering="geometricPrecision"><path id="ebWNd5ZCl4U2" d="M32.740232,38.806758C447.104434,45.759668,1019.335432,248.460861,1080,559.926082C942.871480,960.070864,379.015311,1140.355364,0,1050C90.266764,1460.918637,621.302530,1787.973506,1080,1679.778247C833.376320,2052.519687,287.034291,2204.917229,0,1956.969377" transform="matrix(0.87078009842534 0 0 1.02068901019083 -3466.19802114968343 413.29894272876390)" fill="none" stroke="rgb(63,87,135)" stroke-width="4.200000"/><path id="ebWNd5ZCl4U3" d="M22.634636,33.262936C647.544879,-28.319242,960,292.458545,960,587.645195C774.737265,778.776827,316.330790,1011.066437,0,1092.133052C5.779608,1590.287283,774.265809,1526.169307,960,1668.690602C965.127502,1832.964781,730.249769,2071.965929,183.405491,2100C83.391356,2089.264409,36.593759,2016.877899,0,1968.057022" fill="none" stroke="rgb(63,87,135)" stroke-width="4.200000"/></svg>